<svg width="20" height="20" viewBox="0 0 20 20" fill="none" xmlns="http://www.w3.org/2000/svg">
<g clip-path="url(#clip0_4601_8520)">
<path d="M11.753 19.2823L15.0113 16.0573C15.0894 15.9798 15.1514 15.8877 15.1937 15.7861C15.236 15.6846 15.2578 15.5756 15.2578 15.4656C15.2578 15.3556 15.236 15.2467 15.1937 15.1451C15.1514 15.0436 15.0894 14.9514 15.0113 14.874C14.8552 14.7187 14.644 14.6316 14.4238 14.6316C14.2037 14.6316 13.9924 14.7187 13.8363 14.874L10.8446 17.8406L10.8446 0.848958C10.8446 0.627944 10.7568 0.415983 10.6006 0.259703C10.4443 0.103422 10.2323 0.0156248 10.0113 0.0156248C9.7903 0.0156248 9.57834 0.103422 9.42206 0.259702C9.26578 0.415983 9.17798 0.627944 9.17798 0.848958L9.17798 17.8906L6.16965 14.874C6.09218 14.7959 6.00001 14.7339 5.89846 14.6915C5.79691 14.6492 5.68799 14.6275 5.57798 14.6275C5.46797 14.6275 5.35905 14.6492 5.2575 14.6915C5.15595 14.7339 5.06378 14.7959 4.98631 14.874C4.90821 14.9514 4.84621 15.0436 4.8039 15.1451C4.7616 15.2467 4.73981 15.3556 4.73981 15.4656C4.73981 15.5756 4.7616 15.6846 4.8039 15.7861C4.84621 15.8877 4.90821 15.9798 4.98631 16.0573L8.21965 19.2823C8.6884 19.7505 9.32381 20.0134 9.98631 20.0134C10.6488 20.0134 11.2842 19.7505 11.753 19.2823Z" fill="#E6E6E6"/>
</g>
<defs>
<clipPath id="clip0_4601_8520">
<rect width="20" height="20" fill="white"/>
</clipPath>
</defs>
</svg>
