<svg width="20" height="20" viewBox="0 0 20 20" fill="none" xmlns="http://www.w3.org/2000/svg">
<g clip-path="url(#clip0_4596_47249)">
<path d="M0.399709 8.20021V8.53355H0.59971V8.86689H0.799712V8.53355H0.999714V8.20021H1.19972V7.86688H1.39972V7.53354H1.59972V7.2002H1.79972V6.86687H1.53305V6.53353H1.36638V6.2002H0.766379V6.53353H1.16638V6.86687H0.96638V7.2002H0.766379V7.53354H0.566377V7.2002H0.399709C0.333042 7.46687 0.266374 7.76688 0.199707 8.03354V8.16688H0.399709V8.20021Z" fill="white"/>
<path d="M2.69961 3.16699L2.59961 3.26699H2.69961V3.16699Z" fill="white"/>
<path d="M4.26708 1.96686H4.06708V2.3002H3.86708V2.63354H3.66708V2.96687H3.46708V3.30021H3.26707V2.96687H3.06707V2.8002L2.86707 3.00021V3.30021H3.06707V3.63355H3.26707V3.96688H3.06707V4.30022H2.86707V4.63355H2.66707V4.30022H2.5004V3.96688H2.33373V3.63355C2.26706 3.70021 2.2004 3.80021 2.13373 3.86688V3.96688H2.06706C2.0004 4.00022 1.96706 4.03355 1.93373 4.10022V4.26688H1.80039C1.76706 4.30022 1.76706 4.33355 1.73373 4.36688V4.56689H1.60039C1.53373 4.66689 1.46706 4.80022 1.40039 4.90022H1.56706V5.23356H1.76706V5.5669H1.96706V5.90023H2.16706V6.23357H2.33373V5.90023H2.53373V5.5669H2.73374V5.23356H2.93374V4.90022H3.13374V4.56689H3.33374V4.23355H3.53374V4.56689H3.66708V4.90022H3.86708V5.23356H4.06708V5.5669H4.26708V5.90023H4.46708V5.23356H4.26708V4.90022H4.46708V3.93355H4.26708V4.26688H4.06708V4.60022H3.86708V4.26688H3.66708V3.93355H3.46708V3.60021H3.66708V3.26688H3.86708V2.93354H4.06708V3.26688H4.26708V3.60021H4.46708V2.6002H4.26708V2.26687H4.46708V1.7002C4.40042 1.73353 4.33375 1.8002 4.26708 1.83353V1.96686ZM2.33373 5.23356H2.13373V4.56689H2.33373V5.23356Z" fill="white"/>
<path d="M0.200002 11.1341V10.8008H0.400003V10.4675H0.600005V10.1341H0.800007V9.80079H0.566671V9.46745H0.400003V9.13412H0.200002V8.80078H0.0666673C0.0333336 9.23412 0 9.60079 0 10.0008C0 10.4008 0.0333336 10.7675 0.0666673 11.1341H0.200002Z" fill="white"/>
<path d="M4.26651 9.16719H4.06651V9.50053H3.86651V9.83386H3.6665V10.1672H3.86651V10.5005H4.06651V10.8339H4.26651V11.1339H4.43318V8.86719H4.26651V9.16719Z" fill="white"/>
<path d="M2.50029 3.36719C2.43363 3.43385 2.36696 3.53386 2.30029 3.60052H2.50029V3.36719Z" fill="white"/>
<path d="M2.59961 16.7334L2.69961 16.8334V16.7334H2.59961Z" fill="white"/>
<path d="M2.3335 16.4004C2.40016 16.4671 2.46683 16.5671 2.5335 16.6337V16.4004H2.3335Z" fill="white"/>
<path d="M4.26708 17.7002V17.3669H4.46708V16.3669H4.26708V16.7002H4.06708V17.0336H3.86708V16.7002H3.66708V16.3669H3.46708V16.0335H3.66708V15.7002H3.86708V15.3669H4.06708V15.7002H4.26708V16.0335H4.46708V15.0335H4.26708V14.7002H4.46708V14.0335H4.26708V14.3669H4.06708V14.7002H3.86708V15.0335H3.66708V15.3669H3.46708V15.7002H3.26707V15.3669H3.06707V15.0335H2.86707V14.7002H2.66707V14.3669H2.5004V14.0335H2.33373V13.7002H2.13373V14.0335H1.93373V14.3669H1.73373V14.7002H1.53373V15.0335H1.40039C1.46706 15.1335 1.53373 15.2669 1.60039 15.3669H1.73373V15.5669C1.76706 15.6002 1.76706 15.6335 1.80039 15.6669H1.93373V15.8335C1.96706 15.9669 2.0004 16.0002 2.06706 16.0669H2.13373V16.1669C2.2004 16.2336 2.26706 16.3336 2.33373 16.4002V16.0669H2.53373V15.7335H2.73374V15.4002H2.93374V15.7335H3.13374V16.0669H3.33374V16.4002H3.13374V16.7336H2.93374V17.0336L3.13374 17.2336V17.0669H3.33374V16.7336H3.53374V17.0669H3.66708V17.4002H3.86708V17.7336H4.06708V18.0669H4.26708V18.2002C4.33375 18.2336 4.40042 18.3002 4.46708 18.3336V17.7336L4.26708 17.7002ZM2.33373 15.4002H2.13373V14.7335H2.33373V15.4002Z" fill="white"/>
<path d="M4.26639 11.8005H4.06639V11.4671H3.86638V11.1338H3.66638V11.4671H3.46638V11.8005H3.29971V12.1338H3.09971V12.4671H2.89971V12.8005H2.69971V13.1005H2.89971V13.4338H3.09971V13.7671H3.66638V13.4338H3.29971V13.1005H3.46638V12.8005H3.66638V12.4671H3.86638V12.8005H4.06639V13.1005H4.26639V13.4338H4.43306V12.8005H4.26639V12.4671H4.43306V12.1338H4.26639V11.8005Z" fill="white"/>
<path d="M4.26639 6.90007H4.06639V7.20007H3.86638V7.53341H3.66638V7.20007H3.46638V6.90007H3.29971V6.56673H3.66638V6.2334H3.09971V6.56673H2.89971V6.90007H2.69971V7.20007H2.89971V7.53341H3.09971V7.86675H3.29971V8.20008H3.46638V8.53342H3.66638V8.86675H3.86638V8.53342H4.06639V8.20008H4.26639V7.86675H4.43306V7.53341H4.26639V7.20007H4.43306V6.56673H4.26639V6.90007Z" fill="white"/>
<path d="M0.566377 12.4671H0.766379V12.8005H0.96638V13.1338H1.16638V13.4671H0.766379V13.8005H1.33305V13.4671H1.53305V13.1338H1.73305V12.8005H1.53305V12.4671H1.36638V12.1338H1.16638V11.8005H0.96638V11.4671H0.766379V11.1338H0.566377V11.4671H0.399709V11.8005H0.199707V11.9338C0.266374 12.2338 0.333042 12.5005 0.399709 12.7671H0.566377V12.4671Z" fill="white"/>
<path d="M2.69985 8.19988H2.49985V7.86654H2.33318V7.5332H2.13318V7.86654H1.93318V8.19988H1.73318V8.53321H1.53317V8.86655H1.36651V9.19988H1.1665V10.8666H1.36651V11.1999H1.56651V11.5332H1.76651V11.8666H1.96651V12.1999H2.16651V12.5332H2.33318V12.1999H2.53318V11.8666H2.73318V11.5332H2.93319V11.1999H3.13319V10.8666H3.33319V9.19988H3.13319V8.86655H2.93319V8.53321H2.73318L2.69985 8.19988ZM1.53317 9.96656V10.1666H1.36651V9.83322H1.56651V9.96656H1.53317ZM2.89985 10.0332V9.83322H3.09985V10.1666H2.89985V10.0332ZM2.13318 8.19988H2.33318V8.53321H2.13318V8.19988ZM2.33318 11.7999H2.13318V11.4666H2.33318V11.7999ZM2.69985 9.49989H2.49985V9.83322H2.33318V10.1666H2.53318V10.4999H2.73318V11.1666H2.49985V10.8332H2.33318V10.4999H2.13318V10.8332H1.93318V11.1666H1.73318V10.4999H1.93318V10.1666H2.13318V9.83322H1.93318V9.49989H1.73318V8.83321H1.93318V9.16655H2.13318V9.49989H2.33318V9.16655H2.53318V8.83321H2.73318L2.69985 9.49989Z" fill="white"/>
<path d="M1.73343 4.36621C1.7001 4.43288 1.63343 4.49955 1.6001 4.56621H1.73343V4.36621Z" fill="#D51424"/>
<path d="M1.93363 4.26628V4.09961C1.90029 4.16628 1.86696 4.19961 1.80029 4.26628H1.93363Z" fill="#D51424"/>
<path d="M2.13356 3.93301V3.83301C2.10023 3.86634 2.10023 3.89968 2.06689 3.93301H2.13356Z" fill="#D51424"/>
<path d="M1.36719 9.96634V10.1663H1.53386V9.83301H1.36719V9.96634Z" fill="#D51424"/>
<path d="M4.2666 4.93359H4.4666V5.26693H4.2666V4.93359Z" fill="#D51424"/>
<path d="M2.50016 3.93347V4.26681H2.70017V4.60014H2.90017V4.26681H3.10017V3.93347H3.30017V3.60014H3.10017V3.2668H2.90017V2.9668L2.70017 3.1668V3.2668H2.60017L2.50016 3.3668V3.60014H2.3335V3.93347H2.50016Z" fill="#D51424"/>
<path d="M4.2666 2.2998H4.4666V2.63314H4.2666V2.2998Z" fill="#D51424"/>
<path d="M4.26729 3.2668H4.06729V2.9668H3.86729V3.2668H3.66729V3.60014H3.46729V3.93347H3.66729V4.26681H3.86729V4.60014H4.06729V4.26681H4.26729V3.93347H4.43396V3.60014H4.26729V3.2668Z" fill="#D51424"/>
<path d="M3.3001 2.96635V3.29969H3.5001V2.96635H3.66677V2.63301H3.86677V2.29968H4.06677V1.96634H4.26677V1.83301C3.9001 2.09968 3.53343 2.36635 3.23343 2.66635C3.2001 2.69968 3.16676 2.73302 3.1001 2.76635V2.93302H3.3001V2.96635Z" fill="#D51424"/>
<path d="M2.20046 4.59961H2.13379V5.23295H2.33379V4.59961H2.23379H2.20046Z" fill="#D51424"/>
<path d="M2.50056 9.16621H2.33389V9.49955H2.13389V9.16621H1.93389V8.86621H1.73389V9.49955H1.93389V9.83289H2.13389V10.1662H1.93389V10.4996H1.73389V11.1329H1.93389V10.8329H2.13389V10.4996H2.33389V10.8329H2.50056V11.1329H2.70056V10.4996H2.50056V10.1662H2.33389V9.83289H2.50056V9.49955H2.70056V8.86621H2.50056V9.16621Z" fill="#D51424"/>
<path d="M4.2666 7.2002H4.4666V7.53353H4.2666V7.2002Z" fill="#D51424"/>
<path d="M4.26693 5.56674H4.06693V5.23341H3.86693V4.90007H3.66693V4.56673H3.46692V4.2334H3.26692V4.56673H3.06692V4.90007H2.86692V5.23341H2.66692V5.56674H2.50025V5.90008H2.33358V6.23342H2.13358V5.90008H1.93358V5.56674H1.73358V5.23341H1.53357V4.90007H1.40024C1.20024 5.23341 1.00024 5.60008 0.833568 5.96675C0.6669 6.36675 0.533565 6.76675 0.400231 7.16676H0.566899V7.50009H0.766901V7.16676H0.966902V6.83342H1.1669V6.50008H0.766901V6.16675H1.33357V6.50008H1.53357V6.83342H1.73358V7.16676H1.53357V7.50009H1.36691V7.83343H1.1669V8.16677H0.966902V8.5001H0.766901V8.83344H0.566899V8.5001H0.400231V8.16677H0.200229V8.03343C0.133562 8.3001 0.100228 8.56677 0.0668945 8.83344H0.200229V9.16677H0.400231V9.50011H0.600232V9.83345H0.800234V10.1668H0.566899V10.5001H0.400231V10.8335H0.200229V11.1668H0.0668945C0.100228 11.4335 0.133562 11.7001 0.200229 11.9668V11.8335H0.400231V11.5001H0.600232V11.1668H0.800234V11.5001H1.00024V11.8335H1.20024V12.1668H1.40024V12.5001H1.60024V12.8335H1.80024V13.1668H1.53357V13.5001H1.36691V13.8335H0.766901V13.5001H1.1669V13.1668H0.966902V12.8335H0.766901V12.5001H0.566899V12.8335H0.400231C0.533565 13.2001 0.6669 13.6001 0.833568 14.0001C1.00024 14.3668 1.20024 14.7335 1.40024 15.0668H1.56691V14.7335H1.76691V14.4002H1.96691V14.0668H2.16691V13.7335H2.33358V14.0668H2.53358V14.4002H2.73358V14.7335H2.93359V15.0668H3.13359V15.4002H3.33359V15.7335H3.53359V15.4002H3.66693V15.0668H3.86693V14.7335H4.06693V14.4002H4.26693V14.0668H4.46693V13.4001H4.26693V13.0668H4.06693V12.7335H3.86693V12.4001H3.66693V12.7335H3.46692V13.0668H3.26692V13.4001H3.66693V13.7335H3.10025V13.4001H2.90025V13.0668H2.70025V12.7335H2.90025V12.4001H3.10025V12.0668H3.30026V11.7335H3.50026V11.4001H3.66693V11.0668H3.86693V11.4001H4.06693V11.7335H4.26693V12.0668H4.46693V11.0668H4.26693V10.7335H4.06693V10.4001H3.86693V10.0668H3.66693V9.73345H3.86693V9.40011H4.06693V9.06677H4.26693V8.73344H4.46693V7.73343H4.26693V8.06677H4.06693V8.4001H3.86693V8.73344H3.66693V8.4001H3.46692V8.06677H3.26692V7.73343H3.06692V7.40009H2.86692V7.06676H2.66692V6.73342H2.86692V6.40008H3.06692V6.06675H3.66693V6.40008H3.26692V6.73342H3.46692V7.06676H3.66693V7.40009H3.86693V7.06676H4.06693V6.73342H4.26693V6.40008H4.46693V5.73341H4.26693V5.56674ZM2.90025 8.53344V8.86677H3.10025V9.20011H3.30026V10.8668H3.10025V11.2001H2.90025V11.5335H2.70025V11.8668H2.50025V12.2001H2.33358V12.5335H2.13358V12.2001H1.93358V11.8668H1.73358V11.5335H1.53357V11.2001H1.36691V10.8668H1.1669V9.20011H1.36691V8.86677H1.56691V8.53344H1.76691V8.2001H1.96691V7.86676H2.16691V7.53343H2.33358V7.86676H2.53358V8.2001H2.73358V8.53344H2.90025Z" fill="#D51424"/>
<path d="M2.23379 8.53353H2.33379V8.2002H2.13379V8.53353H2.20046H2.23379Z" fill="#D51424"/>
<path d="M1.73343 15.3994H1.6001C1.63343 15.4661 1.7001 15.5327 1.73343 15.5994V15.3994Z" fill="#D51424"/>
<path d="M1.93363 15.7334H1.80029C1.83363 15.8001 1.86696 15.8334 1.93363 15.9001V15.7334Z" fill="#D51424"/>
<path d="M2.13356 16.0664H2.06689C2.10023 16.0997 2.10023 16.1331 2.13356 16.1664V16.0664Z" fill="#D51424"/>
<path d="M4.2666 14.7666H4.4666V15.0999H4.2666V14.7666Z" fill="#D51424"/>
<path d="M4.26729 15.7328H4.06729V15.3994H3.86729V15.7328H3.66729V16.0661H3.46729V16.3994H3.66729V16.7328H3.86729V17.0328H4.06729V16.7328H4.26729V16.3994H4.43396V16.0661H4.26729V15.7328Z" fill="#D51424"/>
<path d="M2.50016 16.3994V16.6328L2.60017 16.7328H2.70017V16.8328L2.90017 17.0328V16.7328H3.10017V16.3994H3.30017V16.0661H3.10017V15.7328H2.90017V15.3994H2.70017V15.7328H2.50016V16.0661H2.3335V16.3994H2.50016Z" fill="#D51424"/>
<path d="M4.2666 17.3662H4.4666V17.6995H4.2666V17.3662Z" fill="#D51424"/>
<path d="M3.20023 17.3335C3.53357 17.6335 3.8669 17.9335 4.23357 18.1669V18.0335H4.03357V17.7002H3.83357V17.3669H3.6669V17.0335H3.4669V16.7002H3.2669V17.0335H3.06689V17.2002L3.20023 17.3335Z" fill="#D51424"/>
<path d="M2.20046 14.7666H2.13379V15.3999H2.33379V14.7666H2.23379H2.20046Z" fill="#D51424"/>
<path d="M4.2666 12.4668H4.4666V12.8001H4.2666V12.4668Z" fill="#D51424"/>
<path d="M3.10039 10.033V9.83301H2.90039V10.1663H3.10039V10.033Z" fill="#D51424"/>
<path d="M2.20046 11.4668H2.13379V11.8001H2.33379V11.4668H2.23379H2.20046Z" fill="#D51424"/>
<path d="M4.43311 14V18.3C6.03312 19.3667 7.93314 20.0001 9.99982 20.0001C12.6332 20.0001 14.9999 19 16.7999 17.3334C17.7999 16.4 18.6332 15.2667 19.1666 14H4.43311Z" fill="#78CA31"/>
<path d="M19.1666 14.0001C19.6999 12.7668 19.9999 11.4334 19.9999 10.0001C19.9999 8.56674 19.6999 7.2334 19.1666 6.00005C18.5999 4.73337 17.7999 3.60003 16.7999 2.66669C14.9999 1.00001 12.6332 0 9.99982 0C7.93314 0 6.03312 0.633339 4.43311 1.70001V14.0001H19.1666Z" fill="#D23333"/>
</g>
<defs>
<clipPath id="clip0_4596_47249">
<rect width="20" height="20" fill="white"/>
</clipPath>
</defs>
</svg>
