<svg width="20" height="20" viewBox="0 0 20 20" fill="none" xmlns="http://www.w3.org/2000/svg">
<path d="M10.6548 2.66883C10.6548 2.49173 10.7252 2.32188 10.8504 2.19665C10.9756 2.07142 11.1455 2.00107 11.3226 2.00107C13.093 2.00301 14.7904 2.70717 16.0422 3.95905C17.2941 5.21093 17.9983 6.90828 18.0002 8.6787C18.0002 8.8558 17.9299 9.02565 17.8046 9.15088C17.6794 9.27611 17.5096 9.34647 17.3325 9.34647C17.1554 9.34647 16.9855 9.27611 16.8603 9.15088C16.7351 9.02565 16.6647 8.8558 16.6647 8.6787C16.6631 7.26237 16.0998 5.90451 15.0983 4.90302C14.0968 3.90152 12.7389 3.33818 11.3226 3.33659C11.1455 3.33659 10.9756 3.26624 10.8504 3.14101C10.7252 3.01578 10.6548 2.84593 10.6548 2.66883ZM11.3226 6.00765C12.031 6.00765 12.7104 6.28906 13.2113 6.78998C13.7122 7.2909 13.9936 7.97029 13.9936 8.6787C13.9936 8.8558 14.064 9.02565 14.1892 9.15088C14.3145 9.27611 14.4843 9.34647 14.6614 9.34647C14.8385 9.34647 15.0084 9.27611 15.1336 9.15088C15.2588 9.02565 15.3292 8.8558 15.3292 8.6787C15.3281 7.61642 14.9057 6.59794 14.1545 5.84679C13.4034 5.09564 12.3849 4.67318 11.3226 4.67212C11.1455 4.67212 10.9756 4.74247 10.8504 4.8677C10.7252 4.99293 10.6548 5.16278 10.6548 5.33988C10.6548 5.51699 10.7252 5.68683 10.8504 5.81206C10.9756 5.93729 11.1455 6.00765 11.3226 6.00765ZM17.3946 13.1788C17.7815 13.5668 17.9989 14.0925 17.9989 14.6405C17.9989 15.1885 17.7815 15.7142 17.3946 16.1022L16.7869 16.8027C11.3179 22.0386 -1.99061 8.73346 3.16453 3.24711L3.93246 2.57935C4.32094 2.20318 4.8419 1.99509 5.38264 2.00009C5.92338 2.00509 6.44041 2.22278 6.82187 2.60606C6.84257 2.62676 8.07994 4.23407 8.07994 4.23407C8.44709 4.61979 8.65148 5.13216 8.65061 5.66469C8.64974 6.19721 8.44368 6.70891 8.07526 7.09343L7.30199 8.06569C7.72993 9.10548 8.3591 10.0505 9.15337 10.8463C9.94764 11.6422 10.8913 12.2733 11.9303 12.7033L12.9085 11.9254C13.2931 11.5572 13.8047 11.3514 14.3371 11.3507C14.8694 11.3499 15.3816 11.5543 15.7672 11.9214C15.7672 11.9214 17.3739 13.1581 17.3946 13.1788ZM16.4757 14.1497C16.4757 14.1497 14.8778 12.9203 14.8571 12.8996C14.7195 12.7632 14.5336 12.6867 14.3399 12.6867C14.1462 12.6867 13.9603 12.7632 13.8227 12.8996C13.8047 12.9183 12.4578 13.9914 12.4578 13.9914C12.367 14.0637 12.259 14.111 12.1444 14.1288C12.0297 14.1466 11.9124 14.1343 11.8041 14.0929C10.4581 13.5918 9.23566 12.8073 8.21939 11.7925C7.20312 10.7778 6.4168 9.55643 5.91371 8.21127C5.8691 8.10139 5.85456 7.98162 5.87158 7.86426C5.88859 7.7469 5.93656 7.63619 6.01054 7.5435C6.01054 7.5435 7.08363 6.19596 7.10166 6.1786C7.23806 6.04103 7.3146 5.85514 7.3146 5.66141C7.3146 5.46768 7.23806 5.2818 7.10166 5.14423C7.08096 5.1242 5.85161 3.5249 5.85161 3.5249C5.71198 3.3997 5.52975 3.33265 5.34227 3.33749C5.15479 3.34233 4.97627 3.4187 4.84329 3.55095L4.07536 4.21871C0.307836 8.74882 11.8408 19.642 15.8106 15.8905L16.419 15.1894C16.5615 15.0574 16.6471 14.8751 16.6577 14.681C16.6683 14.487 16.6031 14.2965 16.4757 14.1497Z" fill="#1A1B1D"/>
</svg>
