<svg width="33" height="32" viewBox="0 0 33 32" fill="none" xmlns="http://www.w3.org/2000/svg">
<path d="M0.5 10C0.5 4.47715 4.97715 0 10.5 0H22.5C28.0228 0 32.5 4.47715 32.5 10V22C32.5 27.5228 28.0228 32 22.5 32H10.5C4.97715 32 0.5 27.5228 0.5 22V10Z" fill="#D6FF2B"/>
<g clip-path="url(#clip0_2884_12055)">
<path d="M14.4002 20.7094C14.2331 20.7094 14.0675 20.6765 13.9131 20.6125C13.7586 20.5485 13.6183 20.4547 13.5002 20.3364L10.7197 17.5574L11.7807 16.4969L14.4002 19.1164L21.2197 12.2969L22.2807 13.3574L15.3002 20.3364C15.1821 20.4547 15.0418 20.5485 14.8874 20.6125C14.7329 20.6765 14.5674 20.7094 14.4002 20.7094Z" fill="#1A1B1D"/>
</g>
<defs>
<clipPath id="clip0_2884_12055">
<rect width="12" height="12" fill="white" transform="translate(10.5 10)"/>
</clipPath>
</defs>
</svg>
