<svg width="20" height="20" viewBox="0 0 20 20" fill="none" xmlns="http://www.w3.org/2000/svg">
<path fill-rule="evenodd" clip-rule="evenodd" d="M3.6668 3.03276C3.13419 3.20731 2.87279 3.72991 3.06065 4.24448C3.11588 4.39574 3.24119 4.52565 5.90373 7.19141C7.43565 8.72522 8.68904 9.9923 8.68904 10.0072C8.68904 10.0221 7.44571 11.2767 5.92612 12.7953C3.87932 14.8407 3.14428 15.5917 3.09029 15.693C3.02613 15.8133 3.01732 15.8609 3.01697 16.0894C3.01664 16.3042 3.02722 16.3707 3.07821 16.4742C3.17473 16.6701 3.31689 16.8162 3.49985 16.9076C3.64832 16.9818 3.69485 16.9915 3.90256 16.9912C4.32806 16.9908 4.09069 17.1997 7.21966 14.0721L10.0012 11.2918L12.7828 14.0721C15.9118 17.1997 15.6744 16.9908 16.0999 16.9912C16.3076 16.9915 16.3541 16.9818 16.5026 16.9076C16.6856 16.8162 16.8277 16.6701 16.9242 16.4742C16.9752 16.3707 16.9858 16.3042 16.9855 16.0894C16.9851 15.8609 16.9763 15.8133 16.9122 15.693C16.8582 15.5917 16.1231 14.8407 14.0763 12.7953C12.5567 11.2767 11.3134 10.0221 11.3134 10.0072C11.3134 9.9923 12.5668 8.72522 14.0987 7.19141C16.7613 4.52565 16.8866 4.39574 16.9418 4.24448C17.1757 3.60381 16.6722 2.93555 16.0079 3.00498C15.6729 3.04 15.8119 2.91349 12.7965 5.92764L10.0012 8.72164L7.20599 5.92764C4.9159 3.63853 4.38714 3.12325 4.28003 3.07623C4.11352 3.00315 3.82055 2.98235 3.6668 3.03276Z" fill="#080808"/>
</svg>
