<svg width="20" height="20" viewBox="0 0 20 20" fill="none" xmlns="http://www.w3.org/2000/svg">
<path d="M15 5.0018C14.8437 4.84558 14.6318 4.75781 14.4108 4.75781C14.1898 4.75781 13.9779 4.84558 13.8216 5.0018L9.99997 8.82347L6.1783 5.0018C6.02203 4.84558 5.81011 4.75781 5.58914 4.75781C5.36817 4.75781 5.15624 4.84558 4.99997 5.0018C4.84374 5.15807 4.75598 5.37 4.75598 5.59097C4.75598 5.81194 4.84374 6.02386 4.99997 6.18013L8.82164 10.0018L4.99997 13.8235C4.84374 13.9797 4.75598 14.1917 4.75598 14.4126C4.75598 14.6336 4.84374 14.8455 4.99997 15.0018C5.15624 15.158 5.36817 15.2458 5.58914 15.2458C5.81011 15.2458 6.02203 15.158 6.1783 15.0018L9.99997 11.1801L13.8216 15.0018C13.9779 15.158 14.1898 15.2458 14.4108 15.2458C14.6318 15.2458 14.8437 15.158 15 15.0018C15.1562 14.8455 15.244 14.6336 15.244 14.4126C15.244 14.1917 15.1562 13.9797 15 13.8235L11.1783 10.0018L15 6.18013C15.1562 6.02386 15.244 5.81194 15.244 5.59097C15.244 5.37 15.1562 5.15807 15 5.0018Z" fill="#E6E6E6"/>
</svg>
