<svg width="20" height="20" viewBox="0 0 20 20" fill="none" xmlns="http://www.w3.org/2000/svg">
<g clip-path="url(#clip0_4596_47307)">
<path d="M21.0417 0H-0.625V20H21.0417V0Z" fill="#2A66B7"/>
<path d="M10.2085 1.83398L10.6752 2.81732L11.7085 2.98398L10.9585 3.75065L11.1418 4.83398L10.2085 4.31732L9.27516 4.83398L9.4585 3.75065L8.7085 2.98398L9.74183 2.81732L10.2085 1.83398Z" fill="#FCBE1F"/>
<path d="M10.2085 15.166L10.6752 16.1493L11.7085 16.316L10.9585 17.0827L11.1418 18.166L10.2085 17.6493L9.27516 18.166L9.4585 17.0827L8.7085 16.316L9.74183 16.1493L10.2085 15.166Z" fill="#FCBE1F"/>
<path d="M16.875 8.5L17.3417 9.48333L18.375 9.65L17.625 10.4167L17.8083 11.5L16.875 10.9833L15.9417 11.5L16.125 10.4167L15.375 9.65L16.4083 9.48333L16.875 8.5Z" fill="#FCBE1F"/>
<path d="M3.5415 8.5L4.00817 9.48333L5.0415 9.65L4.2915 10.4167L4.47484 11.5L3.5415 10.9833L2.60817 11.5L2.7915 10.4167L2.0415 9.65L3.07484 9.48333L3.5415 8.5Z" fill="#FCBE1F"/>
<path d="M5.2915 3.83398L5.75817 4.81732L6.7915 4.98398L6.0415 5.75065L6.22484 6.83398L5.2915 6.31732L4.35817 6.83398L4.5415 5.75065L3.7915 4.98398L4.82484 4.81732L5.2915 3.83398Z" fill="#FCBE1F"/>
<path d="M15.125 3.83398L15.5917 4.81732L16.625 4.98398L15.875 5.75065L16.0583 6.83398L15.125 6.31732L14.1917 6.83398L14.375 5.75065L13.625 4.98398L14.6583 4.81732L15.125 3.83398Z" fill="#FCBE1F"/>
<path d="M5.2915 12.916L5.75817 13.8993L6.7915 14.066L6.0415 14.8327L6.22484 15.916L5.2915 15.3993L4.35817 15.916L4.5415 14.8327L3.7915 14.066L4.82484 13.8993L5.2915 12.916Z" fill="#FCBE1F"/>
<path d="M15.125 12.916L15.5917 13.8993L16.625 14.066L15.875 14.8327L16.0583 15.916L15.125 15.3993L14.1917 15.916L14.375 14.8327L13.625 14.066L14.6583 13.8993L15.125 12.916Z" fill="#FCBE1F"/>
</g>
<defs>
<clipPath id="clip0_4596_47307">
<rect width="20" height="20" rx="10" fill="white"/>
</clipPath>
</defs>
</svg>
