<svg width="52" height="32" viewBox="0 0 52 32" fill="none" xmlns="http://www.w3.org/2000/svg">
<rect width="32" height="32" rx="16" fill="#47A4D2"/>
<path d="M22.7641 10.0978C22.5241 9.89432 22.1471 9.8652 21.7573 10.0217H21.7567C21.3468 10.1862 10.1532 14.9874 9.6975 15.1836C9.61462 15.2124 8.89078 15.4825 8.96534 16.0841C9.0319 16.6265 9.61366 16.8511 9.6847 16.877L12.5305 17.8514C12.7193 18.4799 13.4153 20.7986 13.5692 21.294C13.6652 21.6028 13.8217 22.0086 14.0959 22.0921C14.3365 22.1849 14.5759 22.1001 14.7308 21.9785L16.4706 20.3647L19.2793 22.5551L19.3461 22.5951C19.5369 22.6796 19.7196 22.7218 19.894 22.7218C20.0287 22.7218 20.158 22.6966 20.2815 22.646C20.7023 22.4732 20.8706 22.0722 20.8882 22.0268L22.9861 11.1222C23.1141 10.5398 22.9362 10.2434 22.7641 10.0978ZM15.0402 18.2412L14.0802 20.8012L13.1202 17.6012L20.4802 12.1612L15.0402 18.2412Z" fill="white"/>
<rect x="20" width="32" height="32" rx="16" fill="#1EBD3D"/>
<g clip-path="url(#clip0_3006_20951)">
<path fill-rule="evenodd" clip-rule="evenodd" d="M41.6421 10.3253C40.1448 8.82667 38.1541 8.00067 36.0334 8C31.6634 8 28.1068 11.556 28.1048 15.928C28.1041 17.3253 28.4694 18.6893 29.1634 19.892L28.0381 24L32.2408 22.8973C33.3988 23.5293 34.7028 23.862 36.0294 23.8627H36.0328C40.4021 23.8627 43.9594 20.306 43.9614 15.934C43.9628 13.816 43.1388 11.8233 41.6421 10.3253ZM36.0334 22.5233H36.0308C34.8481 22.5233 33.6888 22.2053 32.6768 21.6047L32.4361 21.462L29.9421 22.116L30.6081 19.684L30.4514 19.4347C29.7914 18.3853 29.4434 17.1727 29.4441 15.928C29.4454 12.2947 32.4021 9.33867 36.0368 9.33867C37.7968 9.33867 39.4514 10.0253 40.6954 11.2707C41.9394 12.5167 42.6241 14.172 42.6234 15.9327C42.6214 19.5673 39.6654 22.5233 36.0334 22.5233ZM39.6481 17.588C39.4501 17.4887 38.4761 17.0093 38.2941 16.9433C38.1128 16.8773 37.9808 16.844 37.8481 17.042C37.7154 17.24 37.3368 17.6867 37.2208 17.8193C37.1054 17.9513 36.9894 17.968 36.7914 17.8687C36.5934 17.7693 35.9548 17.5607 35.1981 16.8853C34.6094 16.36 34.2114 15.7113 34.0961 15.5127C33.9808 15.314 34.0841 15.2073 34.1828 15.1087C34.2721 15.02 34.3808 14.8773 34.4801 14.7613C34.5801 14.6467 34.6128 14.564 34.6794 14.4313C34.7454 14.2993 34.7128 14.1833 34.6628 14.084C34.6128 13.9853 34.2168 13.01 34.0521 12.6133C33.8914 12.2267 33.7281 12.2793 33.6061 12.2733C33.4908 12.2673 33.3588 12.2667 33.2261 12.2667C33.0941 12.2667 32.8794 12.316 32.6981 12.5147C32.5168 12.7133 32.0048 13.1927 32.0048 14.1673C32.0048 15.1427 32.7148 16.0847 32.8134 16.2167C32.9121 16.3487 34.2101 18.35 36.1974 19.208C36.6701 19.412 37.0394 19.534 37.3268 19.6253C37.8014 19.776 38.2334 19.7547 38.5748 19.704C38.9554 19.6473 39.7468 19.2247 39.9121 18.762C40.0774 18.2993 40.0774 17.902 40.0274 17.82C39.9781 17.7367 39.8461 17.6873 39.6481 17.588Z" fill="white"/>
</g>
<defs>
<clipPath id="clip0_3006_20951">
<rect width="16" height="16" fill="white" transform="translate(28 8)"/>
</clipPath>
</defs>
</svg>
