<svg width="20" height="20" viewBox="0 0 20 20" fill="none" xmlns="http://www.w3.org/2000/svg">
<g clip-path="url(#clip0_4596_47043)">
<path d="M10 20C15.5228 20 20 15.5228 20 10C20 4.47715 15.5228 0 10 0C4.47715 0 0 4.47715 0 10C0 15.5228 4.47715 20 10 20Z" fill="#F9F9F9"/>
<path d="M7.1334 10.5662C8.06674 11.1996 9.36674 10.9329 10.0001 9.99956C10.6334 9.06623 11.9001 8.79956 12.8667 9.4329C13.7667 10.0329 14.0334 11.1996 13.5334 12.0996C14.6334 10.2329 14.1334 7.79957 12.2667 6.56623C10.3667 5.29957 7.80007 5.79957 6.5334 7.69957C6.50007 7.76623 6.46674 7.8329 6.4334 7.86623C5.96674 8.8329 6.26674 9.96623 7.1334 10.5662Z" fill="#EF2D40"/>
<path d="M12.8668 9.43372C11.9335 8.80039 10.6335 9.06706 10.0002 10.0004C9.36682 10.9337 8.10015 11.2004 7.13349 10.5671C6.23349 9.96706 5.96682 8.80039 6.46682 7.90039C5.33349 9.76706 5.86682 12.2004 7.73349 13.4337C9.63349 14.7004 12.2002 14.2004 13.4668 12.3004C13.5002 12.2337 13.5335 12.1671 13.5668 12.1337C14.0335 11.1671 13.7335 10.0337 12.8668 9.43372Z" fill="#3186C5"/>
<path d="M1.93346 7.10052L4.23346 3.66719L4.00013 3.50052L3.7668 3.36719L1.4668 6.80052L1.70013 6.93385L1.93346 7.10052Z" fill="#1F2224"/>
<path d="M2.56634 7.53359L2.79967 7.66693L5.06634 4.23359L4.86634 4.10026L4.63301 3.93359L2.33301 7.36693L2.56634 7.53359Z" fill="#1F2224"/>
<path d="M5.46686 4.5L3.2002 7.93333L3.43353 8.1L3.66686 8.23333L5.93353 4.8L5.70019 4.66667L5.46686 4.5Z" fill="#1F2224"/>
<path d="M15.5004 13.5009L15.7338 13.6676L16.8004 12.0676L16.5671 11.9009L16.3338 11.7676L15.2671 13.3676L15.5004 13.5009Z" fill="#1F2224"/>
<path d="M18.0667 12.9004L17 14.5004L17.2333 14.6671L17.4667 14.8004L18.5333 13.2004L18.3 13.0671L18.0667 12.9004Z" fill="#1F2224"/>
<path d="M16.6 14.234L17.6666 12.634L17.4333 12.4673L17.2 12.334L16.1333 13.934L16.3666 14.0673L16.6 14.234Z" fill="#1F2224"/>
<path d="M15.3664 13.7349L15.1331 13.6016L14.0664 15.2016L14.2997 15.3349L14.5331 15.5016L15.5997 13.9016L15.3664 13.7349Z" fill="#1F2224"/>
<path d="M16.2003 14.3013L16.0003 14.168L14.9336 15.768L15.1336 15.9013L15.3669 16.068L16.4336 14.468L16.2003 14.3013Z" fill="#1F2224"/>
<path d="M16.8338 14.7344L15.7671 16.3344L16.0004 16.501L16.2338 16.6344L17.3004 15.0344L17.0671 14.8677L16.8338 14.7344Z" fill="#1F2224"/>
<path d="M1.70013 13.0671L1.4668 13.2004L3.7668 16.6337L4.00013 16.5004L4.23346 16.3337L1.93346 12.9004L1.70013 13.0671Z" fill="#1F2224"/>
<path d="M3.79974 14.3013L3.56641 14.468L4.63307 16.068L4.86641 15.9013L5.06641 15.768L3.99974 14.168L3.79974 14.3013Z" fill="#1F2224"/>
<path d="M3.43353 11.9009L3.2002 12.0676L5.46686 15.5009L5.70019 15.3342L5.93353 15.2009L3.66686 11.7676L3.43353 11.9009Z" fill="#1F2224"/>
<path d="M2.33301 12.634L3.39967 14.234L3.63301 14.0673L3.86634 13.934L2.79967 12.334L2.56634 12.4673L2.33301 12.634Z" fill="#1F2224"/>
<path d="M17.0671 5.13385L17.3004 4.96719L16.2338 3.36719L16.0004 3.50052L15.7671 3.66719L16.8338 5.26719L17.0671 5.13385Z" fill="#1F2224"/>
<path d="M15.3664 6.26667L15.5997 6.1L14.5331 4.5L14.2997 4.66667L14.0664 4.8L15.1331 6.4L15.3664 6.26667Z" fill="#1F2224"/>
<path d="M17 5.50117L18.0667 7.10117L18.3 6.9345L18.5333 6.80117L17.4667 5.20117L17.2333 5.33451L17 5.50117Z" fill="#1F2224"/>
<path d="M17.4336 7.53359L17.6669 7.36693L15.3669 3.93359L15.1336 4.10026L14.9336 4.23359L17.2003 7.66693L17.4336 7.53359Z" fill="#1F2224"/>
<path d="M16.5671 8.10065L16.8004 7.93398L15.7338 6.33398L15.5004 6.50065L15.2671 6.63398L16.3338 8.23398L16.5671 8.10065Z" fill="#1F2224"/>
</g>
<defs>
<clipPath id="clip0_4596_47043">
<rect width="20" height="20" fill="white"/>
</clipPath>
</defs>
</svg>
