<svg width="21" height="20" viewBox="0 0 21 20" fill="none" xmlns="http://www.w3.org/2000/svg">
<path fill-rule="evenodd" clip-rule="evenodd" d="M9.56379 0.0756886C7.35323 0.475964 5.71155 2.21153 5.43871 4.43663C5.4144 4.63504 5.39447 5.35798 5.39447 6.04314V7.28885L5.27738 7.31537C4.18657 7.56271 3.46612 8.01484 2.89779 8.8088C2.24647 9.71873 2.23885 9.77732 2.25311 13.7715L2.26499 17.1047L2.38579 17.4666C2.7913 18.6814 3.69187 19.5497 4.91372 19.9039L5.24545 20H10.4187H15.5919L15.9236 19.9039C17.2407 19.5221 18.166 18.5611 18.5125 17.215C18.6404 16.7178 18.6367 10.6022 18.5082 10.0658C18.3541 9.42311 18.065 8.89659 17.5955 8.40328C17.0426 7.82239 16.4874 7.52567 15.56 7.31537L15.4429 7.28885V6.04314C15.4429 4.68942 15.4099 4.28646 15.2493 3.67687C14.6069 1.23926 12.057 -0.375809 9.56379 0.0756886ZM11.1425 1.95223C12.1601 2.17802 13.0803 3.03605 13.4352 4.09C13.5432 4.41087 13.5454 4.44097 13.5603 5.85346L13.5755 7.29046H10.4187H7.26186L7.27616 5.85346L7.29051 4.41645L7.40977 4.07582C7.97091 2.47304 9.51938 1.5921 11.1425 1.95223ZM15.5813 9.24152C16.0479 9.42988 16.4543 9.83727 16.6442 10.307L16.7415 10.5477L16.7547 13.4856C16.7641 15.5822 16.7538 16.4966 16.7187 16.6789C16.5686 17.4584 15.9623 18.0312 15.1661 18.1459C14.7627 18.2039 6.0747 18.2039 5.67123 18.1459C4.88549 18.0327 4.28293 17.4738 4.12203 16.7088C4.05973 16.4127 4.0559 10.9352 4.11773 10.6067C4.2435 9.93856 4.77739 9.36853 5.44773 9.18668C5.6358 9.13562 6.43674 9.12732 10.5038 9.13431L15.3364 9.14261L15.5813 9.24152ZM9.87427 11.4689C8.77891 11.8898 8.78708 13.6028 9.88641 14.0141C10.8391 14.3706 11.7812 13.7373 11.7812 12.7404C11.7812 11.742 10.8242 11.1038 9.87427 11.4689Z" fill="#1A1B1D"/>
</svg>
