<svg width="30" height="30" viewBox="0 0 30 30" fill="none" xmlns="http://www.w3.org/2000/svg">
<g clip-path="url(#clip0_2884_13825)">
<path d="M0 9C0 4.02944 4.02944 0 9 0H21C25.9706 0 30 4.02944 30 9V21C30 25.9706 25.9706 30 21 30H9C4.02944 30 0 25.9706 0 21V9Z" fill="#D6FF2B"/>
<g clip-path="url(#clip1_2884_13825)">
<path d="M21.3146 18.2408C21.049 18.6671 20.5685 18.9639 20.0711 18.9639C19.4009 18.9639 18.9499 18.4205 19.0679 17.7559C19.1859 17.0913 19.8309 16.5479 20.5011 16.5479C20.9984 16.5479 21.3736 16.8447 21.4874 17.271H22.5159C22.4653 16.3013 21.7192 15.5781 20.6739 15.5781C19.4599 15.5781 18.3008 16.5521 18.09 17.7559C17.8793 18.9597 18.6886 19.9337 19.9025 19.9337C20.9479 19.9337 21.9468 19.2105 22.3431 18.2408H21.3146Z" fill="#1A1B1D"/>
<path d="M11.1896 18.2422C11.0673 18.5975 10.8776 18.9235 10.6416 19.2119H17.8284C17.6724 18.9152 17.5797 18.5891 17.567 18.2422H11.1896Z" fill="#1A1B1D"/>
<path d="M25.778 13.2912C25.5125 12.9359 25.1036 12.7018 24.6568 12.6517L22.4481 12.4009C21.938 11.9034 20.2267 10.3359 18.9158 10.3359H14.9156C14.001 10.3359 13.1031 10.5826 12.3233 11.0549L9.17044 12.9484L6.76361 13.2578C5.37683 13.4333 4.28512 14.47 4.04064 15.8368L3.77509 17.3249C3.69079 17.7972 3.82145 18.2779 4.12916 18.6416C4.44108 19.0094 4.89209 19.2184 5.37683 19.2184H6.17349C6.01753 18.9216 5.92058 18.5956 5.90794 18.2487H5.38105C5.18715 18.2487 5.01012 18.1651 4.88366 18.0188C4.76142 17.8725 4.70663 17.6802 4.74035 17.4921L5.0059 16.004C5.17451 15.0593 5.93323 14.3446 6.89006 14.2192L9.40227 13.8973C9.46971 13.8889 9.53294 13.868 9.58773 13.8346L12.8334 11.8867C13.4614 11.5105 14.1822 11.3099 14.9199 11.3099H18.92C19.7167 11.3099 21.1582 12.4761 21.879 13.2076C21.9549 13.287 22.0561 13.3372 22.1656 13.3497L24.5514 13.6214C24.7327 13.6423 24.8886 13.7343 24.9982 13.8764C25.1078 14.0185 25.15 14.1941 25.1162 14.3738L24.5177 17.722C24.4629 18.0271 24.1931 18.2528 23.8812 18.2528H22.8696C22.7515 18.6081 22.5619 18.9342 22.3258 19.2226H23.8812C24.6694 19.2226 25.3438 18.6625 25.4829 17.8892L26.0815 14.541C26.1531 14.0979 26.0436 13.6465 25.778 13.2912Z" fill="#1A1B1D"/>
<path d="M9.64661 18.2252C9.38105 18.6515 8.90053 18.9483 8.40315 18.9483C7.73294 18.9483 7.28193 18.4049 7.39995 17.7403C7.51797 17.0757 8.16289 16.5323 8.83309 16.5323C9.33048 16.5323 9.70562 16.829 9.81943 17.2554H10.8479C10.7973 16.2856 10.0513 15.5625 9.00591 15.5625C7.79196 15.5625 6.6328 16.5364 6.42204 17.7403C6.21129 18.9441 7.02059 19.9181 8.23454 19.9181C9.27989 19.9181 10.2789 19.1949 10.6751 18.2252H9.64661Z" fill="#1A1B1D"/>
</g>
</g>
<defs>
<clipPath id="clip0_2884_13825">
<rect width="30" height="30" fill="white"/>
</clipPath>
<clipPath id="clip1_2884_13825">
<rect width="22.5" height="10.5" fill="white" transform="translate(3.75 9.75)"/>
</clipPath>
</defs>
</svg>
