<svg width="36" height="36" viewBox="0 0 36 36" fill="none" xmlns="http://www.w3.org/2000/svg">
<g clip-path="url(#clip0_3007_42557)">
<path d="M18 0C8.0745 0 0 8.0745 0 18C0 27.9255 8.0745 36 18 36C27.9255 36 36 27.9255 36 18C36 8.0745 27.9255 0 18 0ZM18 33C9.729 33 3 26.271 3 18C3 9.729 9.729 3 18 3C26.271 3 33 9.729 33 18C33 26.271 26.271 33 18 33ZM25.5 18C25.5 18.828 24.828 19.5 24 19.5H12C11.172 19.5 10.5 18.828 10.5 18C10.5 17.172 11.172 16.5 12 16.5H24C24.828 16.5 25.5 17.172 25.5 18Z" fill="#8F3985"/>
</g>
<defs>
<clipPath id="clip0_3007_42557">
<rect width="36" height="36" fill="white"/>
</clipPath>
</defs>
</svg>
