<svg width="36" height="36" viewBox="0 0 36 36" fill="none" xmlns="http://www.w3.org/2000/svg">
<g clip-path="url(#clip0_3007_42532)">
<path d="M18 0C14.4399 0 10.9598 1.05568 7.99974 3.03355C5.03966 5.01141 2.73255 7.82263 1.37018 11.1117C0.00779915 14.4008 -0.348661 18.02 0.345873 21.5116C1.04041 25.0033 2.75474 28.2106 5.27209 30.7279C7.78943 33.2453 10.9967 34.9596 14.4884 35.6541C17.98 36.3487 21.5992 35.9922 24.8883 34.6298C28.1774 33.2675 30.9886 30.9604 32.9665 28.0003C34.9443 25.0402 36 21.5601 36 18C35.9948 13.2277 34.0968 8.65232 30.7222 5.27778C27.3477 1.90324 22.7723 0.00516162 18 0ZM18 33C15.0333 33 12.1332 32.1203 9.66645 30.472C7.19972 28.8238 5.27713 26.4811 4.14182 23.7403C3.0065 20.9994 2.70945 17.9834 3.28823 15.0736C3.86701 12.1639 5.29562 9.49119 7.39341 7.3934C9.49119 5.29561 12.1639 3.867 15.0737 3.28822C17.9834 2.70944 20.9994 3.00649 23.7403 4.14181C26.4812 5.27712 28.8238 7.19971 30.4721 9.66645C32.1203 12.1332 33 15.0333 33 18C32.9956 21.9769 31.4139 25.7897 28.6018 28.6018C25.7897 31.4139 21.9769 32.9956 18 33ZM25.5 18C25.5 18.3978 25.342 18.7794 25.0607 19.0607C24.7794 19.342 24.3978 19.5 24 19.5H19.5V24C19.5 24.3978 19.342 24.7794 19.0607 25.0607C18.7794 25.342 18.3978 25.5 18 25.5C17.6022 25.5 17.2207 25.342 16.9393 25.0607C16.658 24.7794 16.5 24.3978 16.5 24V19.5H12C11.6022 19.5 11.2207 19.342 10.9393 19.0607C10.658 18.7794 10.5 18.3978 10.5 18C10.5 17.6022 10.658 17.2206 10.9393 16.9393C11.2207 16.658 11.6022 16.5 12 16.5H16.5V12C16.5 11.6022 16.658 11.2206 16.9393 10.9393C17.2207 10.658 17.6022 10.5 18 10.5C18.3978 10.5 18.7794 10.658 19.0607 10.9393C19.342 11.2206 19.5 11.6022 19.5 12V16.5H24C24.3978 16.5 24.7794 16.658 25.0607 16.9393C25.342 17.2206 25.5 17.6022 25.5 18Z" fill="#297045"/>
</g>
<defs>
<clipPath id="clip0_3007_42532">
<rect width="36" height="36" fill="white"/>
</clipPath>
</defs>
</svg>
