<svg width="120" height="24" viewBox="0 0 120 24" fill="none" xmlns="http://www.w3.org/2000/svg">
<path d="M11.3195 1.96017C11.5436 1.31536 12.4555 1.31536 12.6796 1.96016L14.6564 7.64712C14.7553 7.93157 15.0207 8.12444 15.3218 8.13057L21.3413 8.25324C22.0238 8.26715 22.3056 9.13442 21.7616 9.54684L16.9639 13.1842C16.7239 13.3662 16.6225 13.6782 16.7097 13.9665L18.4531 19.7292C18.6508 20.3826 17.9131 20.9187 17.3527 20.5287L12.4108 17.0898C12.1636 16.9178 11.8355 16.9178 11.5883 17.0898L6.64633 20.5287C6.086 20.9187 5.34825 20.3826 5.54593 19.7292L7.28939 13.9665C7.37659 13.6782 7.2752 13.3662 7.03522 13.1842L2.23747 9.54684C1.69348 9.13442 1.97528 8.26715 2.65778 8.25324L8.67726 8.13057C8.97834 8.12444 9.2438 7.93157 9.34267 7.64712L11.3195 1.96017Z" fill="#FF9F1C" fill-opacity="0.64"/>
<path d="M35.3195 1.96017C35.5436 1.31536 36.4555 1.31536 36.6796 1.96016L38.6564 7.64712C38.7553 7.93157 39.0207 8.12444 39.3218 8.13057L45.3413 8.25324C46.0238 8.26715 46.3056 9.13442 45.7616 9.54684L40.9639 13.1842C40.7239 13.3662 40.6225 13.6782 40.7097 13.9665L42.4531 19.7292C42.6508 20.3826 41.9131 20.9187 41.3527 20.5287L36.4108 17.0898C36.1636 16.9178 35.8355 16.9178 35.5883 17.0898L30.6463 20.5287C30.086 20.9187 29.3483 20.3826 29.5459 19.7292L31.2894 13.9665C31.3766 13.6782 31.2752 13.3662 31.0352 13.1842L26.2375 9.54684C25.6935 9.13442 25.9753 8.26715 26.6578 8.25324L32.6773 8.13057C32.9783 8.12444 33.2438 7.93157 33.3427 7.64712L35.3195 1.96017Z" fill="#FF9F1C" fill-opacity="0.64"/>
<path d="M59.3195 1.96017C59.5436 1.31536 60.4555 1.31536 60.6796 1.96016L62.6564 7.64712C62.7553 7.93157 63.0207 8.12444 63.3218 8.13057L69.3413 8.25324C70.0238 8.26715 70.3056 9.13442 69.7616 9.54684L64.9639 13.1842C64.7239 13.3662 64.6225 13.6782 64.7097 13.9665L66.4531 19.7292C66.6508 20.3826 65.9131 20.9187 65.3527 20.5287L60.4108 17.0898C60.1636 16.9178 59.8355 16.9178 59.5883 17.0898L54.6463 20.5287C54.086 20.9187 53.3483 20.3826 53.5459 19.7292L55.2894 13.9665C55.3766 13.6782 55.2752 13.3662 55.0352 13.1842L50.2375 9.54684C49.6935 9.13442 49.9753 8.26715 50.6578 8.25324L56.6773 8.13057C56.9783 8.12444 57.2438 7.93157 57.3427 7.64712L59.3195 1.96017Z" fill="#FF9F1C" fill-opacity="0.64"/>
<path d="M83.3195 1.96017C83.5436 1.31536 84.4555 1.31536 84.6796 1.96016L86.6564 7.64712C86.7553 7.93157 87.0207 8.12444 87.3218 8.13057L93.3413 8.25324C94.0238 8.26715 94.3056 9.13442 93.7616 9.54684L88.9639 13.1842C88.7239 13.3662 88.6225 13.6782 88.7097 13.9665L90.4531 19.7292C90.6508 20.3826 89.9131 20.9187 89.3527 20.5287L84.4108 17.0898C84.1636 16.9178 83.8355 16.9178 83.5883 17.0898L78.6463 20.5287C78.086 20.9187 77.3483 20.3826 77.5459 19.7292L79.2894 13.9665C79.3766 13.6782 79.2752 13.3662 79.0352 13.1842L74.2375 9.54684C73.6935 9.13442 73.9753 8.26715 74.6578 8.25324L80.6773 8.13057C80.9783 8.12444 81.2438 7.93157 81.3427 7.64712L83.3195 1.96017Z" fill="#FF9F1C" fill-opacity="0.64"/>
<path d="M107.319 1.96017C107.544 1.31536 108.455 1.31536 108.68 1.96016L110.656 7.64712C110.755 7.93157 111.021 8.12444 111.322 8.13057L117.341 8.25324C118.024 8.26715 118.306 9.13442 117.762 9.54684L112.964 13.1842C112.724 13.3662 112.622 13.6782 112.71 13.9665L114.453 19.7292C114.651 20.3826 113.913 20.9187 113.353 20.5287L108.411 17.0898C108.164 16.9178 107.835 16.9178 107.588 17.0898L102.646 20.5287C102.086 20.9187 101.348 20.3826 101.546 19.7292L103.289 13.9665C103.377 13.6782 103.275 13.3662 103.035 13.1842L98.2375 9.54684C97.6935 9.13442 97.9753 8.26715 98.6578 8.25324L104.677 8.13057C104.978 8.12444 105.244 7.93157 105.343 7.64712L107.319 1.96017Z" fill="#FF9F1C" fill-opacity="0.64"/>
</svg>
