<svg width="36" height="36" viewBox="0 0 36 36" fill="none" xmlns="http://www.w3.org/2000/svg">
<g clip-path="url(#clip0_3007_42578)">
<path d="M13.53 26.025C13.245 26.025 12.945 25.935 12.705 25.755C12.24 25.41 12.045 24.795 12.225 24.24L13.515 20.1L10.245 17.445C9.81 17.07 9.645 16.47 9.84 15.93C10.035 15.39 10.56 15.03 11.13 15.03H15.255L16.71 11.115C16.905 10.575 17.43 10.215 18 10.215C18.57 10.215 19.095 10.575 19.29 11.115L20.745 15.03H24.87C25.44 15.03 25.965 15.39 26.16 15.93C26.355 16.47 26.19 17.085 25.755 17.46L22.5 20.115L23.85 24.21C24.03 24.765 23.85 25.38 23.385 25.725C22.92 26.085 22.29 26.1 21.795 25.785L18.015 23.325L14.295 25.815C14.07 25.965 13.8 26.04 13.53 26.04V26.025ZM18 36C8.07 36 0 27.93 0 18C0 8.07 8.07 0 18 0C27.93 0 36 8.07 36 18C36 27.93 27.93 36 18 36ZM18 3C9.735 3 3 9.735 3 18C3 26.265 9.735 33 18 33C26.265 33 33 26.265 33 18C33 9.735 26.265 3 18 3Z" fill="#FF9F1C"/>
</g>
<defs>
<clipPath id="clip0_3007_42578">
<rect width="36" height="36" fill="white"/>
</clipPath>
</defs>
</svg>
