<svg width="20" height="20" viewBox="0 0 20 20" fill="none" xmlns="http://www.w3.org/2000/svg">
<g clip-path="url(#clip0_3177_11527)">
<rect x="2" y="5" width="16" height="11" fill="white"/>
<path d="M18.5967 1.40333C17.1933 0 14.9342 0 10.4167 0H9.58333C5.06583 0 2.80667 0 1.40333 1.40333C0 2.80667 0 5.06583 0 9.58333V10.4167C0 14.9342 0 17.1925 1.40333 18.5967C2.80667 20.0008 5.06583 20 9.58333 20H10.4167C14.9342 20 17.1925 20 18.5967 18.5967C20 17.1933 20 14.9342 20 10.4167V9.58333C20 5.06583 20 2.80667 18.5967 1.40333ZM16.2525 14.1667H14.7942C14.2383 14.1667 14.075 13.7233 13.0858 12.7342C12.22 11.9 11.8492 11.7917 11.6333 11.7917C11.3392 11.7917 11.2517 11.875 11.2517 12.2917V13.5992C11.2517 13.9575 11.1375 14.1667 10.21 14.1667C8.665 14.1667 6.96667 13.2283 5.76083 11.4983C3.9525 8.96417 3.45833 7.04833 3.45833 6.6625C3.45833 6.44583 3.54167 6.25 3.95833 6.25H5.4175C5.79 6.25 5.93 6.41333 6.07 6.81667C6.78333 8.89417 7.98667 10.71 8.48083 10.71C8.66583 10.71 8.75083 10.6242 8.75083 10.1542V8.00667C8.69667 7.01833 8.17083 6.93667 8.17083 6.585C8.17083 6.4225 8.31 6.25 8.54167 6.25H10.8342C11.1433 6.25 11.2508 6.415 11.2508 6.78583V9.675C11.2508 9.98333 11.385 10.0917 11.4775 10.0917C11.6633 10.0917 11.8175 9.98333 12.1575 9.64333C13.2083 8.46917 13.95 6.66167 13.95 6.66167C14.0433 6.445 14.2133 6.24917 14.585 6.24917H16.0433C16.4842 6.24917 16.5775 6.47583 16.4842 6.785C16.2983 7.635 14.5217 10.1375 14.5217 10.1375C14.3667 10.385 14.305 10.5083 14.5217 10.7867C14.6767 11.0033 15.1858 11.4358 15.5258 11.8375C16.1525 12.5425 16.625 13.1367 16.7567 13.5467C16.8783 13.9583 16.6692 14.1667 16.2525 14.1667Z" fill="#4E73ED"/>
</g>
<defs>
<clipPath id="clip0_3177_11527">
<rect width="20" height="20" fill="white"/>
</clipPath>
</defs>
</svg>
